<?xml version="1.0" encoding="UTF-8"?>
<!-- Created with Inkscape (http://www.inkscape.org/) -->
<svg width="17.067mm" height="7.9852mm" version="1.1" viewBox="0 0 17.067 7.9852" xmlns="http://www.w3.org/2000/svg" xmlns:cc="http://creativecommons.org/ns#" xmlns:dc="http://purl.org/dc/elements/1.1/" xmlns:rdf="http://www.w3.org/1999/02/22-rdf-syntax-ns#">
 <metadata>
  <rdf:RDF>
   <cc:Work rdf:about="">
    <dc:format>image/svg+xml</dc:format>
    <dc:type rdf:resource="http://purl.org/dc/dcmitype/StillImage"/>
    <dc:title/>
   </cc:Work>
  </rdf:RDF>
 </metadata>
 <g transform="translate(-1.821 -284.45)">
  <path transform="matrix(.26458 0 0 .26458 0 277)" d="m9.3809 30.67v25.004h0.00391v-25.004zm6.9609 0.17188v0.0078h10.002v12.498h-10v12.506h10.01v-0.0078h-10.004v-12.49h9.9941v2e-3h0.0059v-2e-3h0.0039v-0.0078h-0.0039v-12.506zm25.535 0v0.0078h0.0039v25.004h10.008v-0.0078h-2e-3v-25.004zm17 0v0.0078h0.0039v25.004h10.008v-0.0078h-2e-3v-25.004zm-16.992 0.0078h9.998v24.996h-9.998zm17 0h9.998v24.996h-9.998zm-24.939 6.1172v0.27344h0.27539v-0.27344zm0 12.496v0.27539h0.27539v-0.27539z" fill="#f2f2f2" stroke="#e8e8e8" stroke-linejoin="round" stroke-width="4.9966"/>
 </g>
</svg>
