<?xml version="1.0" encoding="UTF-8"?>
<!-- Created with Inkscape (http://www.inkscape.org/) -->
<svg width="183.5" height="237.47" version="1.1" viewBox="0 0 48.55 62.83" xmlns="http://www.w3.org/2000/svg" xmlns:cc="http://creativecommons.org/ns#" xmlns:dc="http://purl.org/dc/elements/1.1/" xmlns:rdf="http://www.w3.org/1999/02/22-rdf-syntax-ns#">
 <defs>
  <clipPath id="clipPath10953">
   <rect x="-392.6" y="-306.81" width="144.71" height="196.77" ry="5.0084" fill="#fff" stroke="#000" stroke-linejoin="round" stroke-width=".52053"/>
  </clipPath>
 </defs>
 <metadata>
  <rdf:RDF>
   <cc:Work rdf:about="">
    <dc:format>image/svg+xml</dc:format>
    <dc:type rdf:resource="http://purl.org/dc/dcmitype/StillImage"/>
    <dc:title/>
   </cc:Work>
  </rdf:RDF>
 </metadata>
 <g transform="translate(-32.192 -91.11)">
  <path d="m35.405 103.49-3.0991 5.107 5.0842-5.107 3.2727-5.2814z" fill="none" stroke="#000" stroke-width=".26458px"/>
  <g stroke="#000" stroke-linejoin="round">
   <path transform="matrix(1 0 -.70552 .70869 0 0)" d="m138.44 138.58h37.031v7.4523h-37.031z" fill="#d4d4d4" stroke-width=".31429" style="paint-order:normal"/>
   <path d="m40.656 92.923h37.038v5.288h-37.038z" fill="#f0f0f0" stroke-width=".26458" style="paint-order:normal"/>
   <path d="m39.887 91.242h35.169c0.51825 0 1.1453 0.20726 1.4061 0.4647l1.2315 1.2164h-37.039l-1.2322-1.2164c-0.26071-0.25744-0.05337-0.4647 0.46488-0.4647z" fill="#dfdfdf" stroke-width=".26458" style="paint-order:normal"/>
  </g>
  <g transform="matrix(.13223 0 0 .13202 -235.76 14.614)">
   <g transform="translate(2502.1 -2.1446e-5)">
    <rect x="-438.27" y="605.67" width="278.01" height="378.01" ry="9.6217" fill="#fff" stroke="#000" stroke-linejoin="round"/>
    <g transform="matrix(.20263 0 0 .20263 -428.16 639.85)">
     <path d="m48.381 228.23c-22.128 1.6e-4 -40.066-17.938-40.066-40.066 0-51.667 71.06-60.557 71.06-88.471 0 27.921 71.059 36.805 71.059 88.471 1.7e-4 22.128-17.938 40.066-40.066 40.066-12.015-0.01-23.392-5.4114-30.994-14.716-7.6021 9.3046-18.979 14.706-30.994 14.716z" stroke-width=".26458"/>
     <path d="m79.375 163.67c0 92.918 27.034 92.796 27.034 92.796h-54.068s27.034 0.12204 27.034-92.796z" stroke-width=".4928"/>
    </g>
   </g>
   <g>
    <g transform="matrix(.26458 0 0 .26458 2489.8 738.65)" aria-label="10">
     <path d="m-1550.4-458.31h3.125v118.75q0 6.25 3.9063 9.375 3.9062 3.125 10.938 3.125h7.8125v4.6875h-57.031v-4.6875h7.0313q7.8125 0 10.938-3.125 3.9062-3.125 3.9062-9.375v-94.531q0-3.125-2.3437-4.6875-1.5625-2.3438-5.4688-2.3438h-14.062v-4.6875h7.0313q9.375 0 14.844-3.125 6.25-3.125 9.375-9.375z" style=""/>
     <path d="m-1465.6-434.09q-6.25-17.188-18.75-17.188-10.938 0-18.75 17.188-7.0313 16.406-7.0313 44.531 0 29.688 7.0313 46.094 7.8125 16.406 18.75 16.406 11.719 0 17.969-16.406 7.0313-16.406 7.0313-46.094 0-28.125-6.25-44.531zm9.375 95.312q-10.938 17.969-28.125 17.969t-28.906-17.969q-11.719-17.969-11.719-50.781 0-30.469 10.938-49.219 11.719-18.75 29.688-18.75 17.188 0 28.125 17.969 11.719 17.969 11.719 50t-11.719 50.781z" style=""/>
    </g>
    <g transform="matrix(.36804 0 0 .36804 2261.9 599.7)">
     <path d="m48.381 228.23c-22.128 1.6e-4 -40.066-17.938-40.066-40.066 0-51.667 71.06-60.557 71.06-88.471 0 27.921 71.059 36.805 71.059 88.471 1.7e-4 22.128-17.938 40.066-40.066 40.066-12.015-0.01-23.392-5.4114-30.994-14.716-7.6021 9.3046-18.979 14.706-30.994 14.716z" stroke-width=".26458"/>
     <path d="m79.375 163.67c0 92.918 27.034 92.796 27.034 92.796h-54.068s27.034 0.12204 27.034-92.796z" stroke-width=".4928"/>
    </g>
    <g transform="matrix(.36804 0 0 .36804 2117.4 599.7)">
     <path d="m48.381 228.23c-22.128 1.6e-4 -40.066-17.938-40.066-40.066 0-51.667 71.06-60.557 71.06-88.471 0 27.921 71.059 36.805 71.059 88.471 1.7e-4 22.128-17.938 40.066-40.066 40.066-12.015-0.01-23.392-5.4114-30.994-14.716-7.6021 9.3046-18.979 14.706-30.994 14.716z" stroke-width=".26458"/>
     <path d="m79.375 163.67c0 92.918 27.034 92.796 27.034 92.796h-54.068s27.034 0.12204 27.034-92.796z" stroke-width=".4928"/>
    </g>
    <g transform="matrix(.36804 0 0 .36804 2189.6 629.49)">
     <path d="m48.381 228.23c-22.128 1.6e-4 -40.066-17.938-40.066-40.066 0-51.667 71.06-60.557 71.06-88.471 0 27.921 71.059 36.805 71.059 88.471 1.7e-4 22.128-17.938 40.066-40.066 40.066-12.015-0.01-23.392-5.4114-30.994-14.716-7.6021 9.3046-18.979 14.706-30.994 14.716z" stroke-width=".26458"/>
     <path d="m79.375 163.67c0 92.918 27.034 92.796 27.034 92.796h-54.068s27.034 0.12204 27.034-92.796z" stroke-width=".4928"/>
    </g>
   </g>
  </g>
  <path transform="scale(.26458)" d="m133.8 391.13v189.96h139.96v-189.96h-52.301a17.678 17.678 0 0 1-17.678 17.678 17.678 17.678 0 0 1-17.678-17.678z" fill="#fff" stroke="#000" stroke-linejoin="round" style="paint-order:normal"/>
  <g transform="matrix(.25505 0 0 .25481 135.65 181.79)" clip-path="url(#clipPath10953)" stroke-width=".3264">
   <path d="m-340.68-271.38c-27.297-2.1e-4 -49.426 22.129-49.426 49.426 0 63.737 87.661 109.14 87.661 109.14s87.66-45.403 87.66-109.14c2.1e-4 -27.297-22.129-49.426-49.426-49.426-14.822 0.0123-28.857 6.6755-38.235 18.154-9.3781-11.478-23.413-18.142-38.235-18.154z" fill="#f00"/>
   <path d="m-340.68-271.38c-27.297-2.2e-4 -49.426 22.129-49.426 49.426 0 63.737 87.661 109.14 87.661 109.14v-140.41c-1.6e-4 2.2e-4 -4.2e-4 3.9e-4 -6.2e-4 6.3e-4 -9.3781-11.478-23.413-18.142-38.235-18.154z" fill="#fff" fill-opacity=".39216"/>
  </g>
  <path transform="matrix(.70711 -.70711 0 1 0 0)" d="m102.43 175.92h7.4682v50.26h-7.4682z" fill="#e7e7e7" stroke="#000" stroke-linejoin="round" stroke-width=".31464" style="paint-order:normal"/>
  <path d="m72.431 103.49 5.2629-5.2814 2.8879 5.887-4.5196 4.5014z" fill="#fff" stroke="#000" stroke-width=".26458px"/>
 </g>
 <g transform="translate(-32.192 -91.11)">
  <g transform="matrix(.057708 0 0 .057708 -143.09 -290.56)" fill="#fff" stroke-width=".99945" aria-label="FreeCell">
   <path d="m3217.7 7105q-0.8463 0.5859-2.4739 0.651-1.6276 0.065-3.4506-0.1302-1.8229-0.1953-3.5156-0.3906-1.6276-0.1953-2.6042-0.065-1.4322-0.065-4.3619 0.1953-2.8646 0.1953-6.5104 0.651-3.6459 0.4558-7.5521 1.1068-3.9063 0.5859-7.2917 1.3021-3.3854 0.7161-5.7943 1.4974-2.4088 0.7161-3.0599 1.3672-0.2604 0.3255-0.9114 2.1484-0.586 1.7578-1.3021 4.6224-0.7162 2.7995-1.4323 6.4453-0.7161 3.5808-1.3021 7.487-0.5208 3.9063-0.8463 7.8776-0.3256 3.9714-0.1302 7.5521 4.4921-1.3021 9.0494-2.2136 4.6224-0.9765 10.156-2.0833 2.539-0.4557 5.4687-1.3672 2.9297-0.9114 5.7943-1.7578 2.9297-0.9114 5.5339-1.5625 2.6041-0.651 4.5573-0.651 1.7578 0 2.9296 0.3255 1.1719 0.3255 1.9532 1.0417 0.7812 0.651 1.2369 1.7578 0.4558 1.0416 0.8464 2.539 0.065 0.4558-0.3255 1.1068-0.3906 0.5859-1.0417 1.3021-0.5859 0.651-1.237 1.237-0.5859 0.5859-0.9114 0.9765-0.7162 0.7162-2.6042 1.3672-1.8229 0.586-3.9062 1.0417-2.0834 0.4557-4.1016 0.7812-1.9531 0.3256-2.9297 0.5209-3.3203 0.651-6.9661 1.3672-3.5808 0.651-7.0964 1.4322-3.4505 0.7162-6.6406 1.4323-3.125 0.7162-5.599 1.4323-2.4739 0.7162-4.0364 1.3672-1.4974 0.6511-1.7578 1.237-0.5209 1.1719-0.8464 3.0599-0.3255 1.8229-0.5859 4.1016-0.1953 2.2135-0.2605 4.6875-0.065 2.4739-0.1302 4.8828 0 2.4088 0.065 4.6224 0.065 2.2135 0.1303 3.8411 0 2.2135 0.065 4.2969 0.1302 2.0833-0.3256 4.1015-0.4557 1.4323-1.6276 2.2136-1.1067 0.7812-3.5807 0.5859-0.3255-0.065-1.4974-0.5208-1.1719-0.3906-2.474-1.3672-1.2369-0.9115-2.2786-2.3437-0.9766-1.3672-0.9766-3.3855-0.065-7.8776 0.7162-14.844 0.8463-7.0313 1.6927-13.932 0.651-5.5339 1.4974-11.523 0.8463-5.9896 1.6927-12.044 0.9115-6.0547 1.8229-11.979 0.9115-5.9896 1.6927-11.523 0.1302-1.0417-0.065-2.0833-0.1953-1.1068-0.5208-2.1485-0.3255-1.1068-0.7162-2.1484-0.3255-1.1068-0.5208-2.1485-0.1302-0.9765 0.4557-2.0833 0.586-1.1068 1.4974-2.0182 0.9115-0.9766 1.9532-1.5625 1.0416-0.6511 1.9531-0.586 1.3021 0.1302 2.3437 0.3256 1.1068 0.1953 2.0834 0.3255 0.9765 0.1302 1.9531 0.2604 0.9765 0.065 2.0833 0.065 1.888 0 4.2969-0.3255 2.474-0.3255 5.0781-0.7813 2.6693-0.5208 5.3386-1.0416 2.7343-0.586 5.0781-1.0417 7.2265-1.3021 13.281-2.1484 6.0547-0.9115 11.133-0.9115 0.7813 0 1.8881 0.3906 1.1718 0.3907 2.2786 0.9766t1.888 1.3672q0.8464 0.7161 0.9115 1.4974 0.1302 1.6927-0.7162 3.9062-0.7812 2.1485-3.5807 4.0365z" style=""/>
   <path d="m3285.2 7140.2q0 0.9766-0.9114 1.6927-0.8464 0.6511-2.2787 1.237-1.4323 0.586-3.2552 1.1068-1.7578 0.4557-3.5156 1.0417-4.2318 1.302-8.724 3.776-4.427 2.4088-9.2447 7.2917-3.7761 3.8411-6.5105 8.0729-2.6692 4.1666-4.6224 8.8541-1.9531 4.6875-3.3203 9.961-1.3672 5.2083-2.3437 11.133-0.7162 0.7812-1.237 1.3672-0.5208 0.5859-1.1068 0.9765-0.5859 0.3907-1.3672 0.586-0.7161 0.2604-1.888 0.2604-1.6927 0-2.6693-1.4974-0.9114-1.4323-1.3671-3.4505-0.4558-1.9531-0.586-3.9714-0.065-2.0182-0.065-3.1901 0-1.237 0.065-3.125 0.065-1.9531 0.1302-4.2317 0.1302-2.2787 0.2604-4.6875 0.1303-2.474 0.1954-4.7527 0.1302-2.2786 0.1953-4.1666 0.065-1.9531 0.065-3.1901 0-2.9948-0.1302-4.9479-0.065-1.9532-0.1953-3.3204-0.1303-1.3671-0.3256-2.4088-0.1953-1.1068-0.3255-2.3438-0.1302-1.302-0.2604-2.9947-0.065-1.7579-0.065-4.4922 0-1.3672 0.5859-2.6042 0.586-1.3021 1.4974-2.2135 0.9766-0.9766 2.1485-1.4974 1.2369-0.586 2.4088-0.586 1.3672 0 2.5391 0.586 1.1719 0.5859 2.0182 1.4974 0.8464 0.9114 1.3021 2.1484 0.4557 1.1719 0.4557 2.4089 0 2.4739-0.3255 5.9244-0.3255 3.3854-0.7161 6.9662-0.3256 3.5156-0.586 6.8359-0.2604 3.2552-0.1953 5.4688 2.7995-5.3386 6.4453-10.807 3.711-5.4688 8.2031-9.8959 4.5573-4.4921 9.8308-7.2916 5.2734-2.8646 11.263-2.8646 1.1719 0 2.6693 0.2604t2.7994 0.9115q1.3021 0.651 2.1485 1.6927 0.9114 0.9765 0.9114 2.4739z" style=""/>
   <path d="m3354.3 7167.1q-5.0782 3.9713-10.872 7.552-5.7943 3.5808-11.654 6.3151-5.8594 2.7344-11.458 4.362-5.599 1.5625-10.286 1.5625-5.2734 0-9.375-1.4974-4.1015-1.5625-6.9661-4.8177t-4.362-8.2682q-1.4974-5.0781-1.4974-12.109 0-6.4453 1.1719-12.174 1.1719-5.7942 3.1901-10.677 2.0833-4.8829 4.7526-8.7891 2.7344-3.9714 5.7943-6.7057 3.125-2.7344 6.3802-4.1667 3.2552-1.4974 6.3802-1.4974t5.4036 0.9115q2.3438 0.8463 3.8412 2.4088 1.5625 1.5625 2.3437 3.7109 0.7813 2.1485 0.7813 4.6875 0 1.6928-0.7162 4.0365-0.651 2.3438-2.4739 5.4037-1.823 3.0598-5.0131 6.901-3.1901 3.776-8.2031 8.3333-1.4323 1.3021-3.125 2.6693-1.6276 1.3672-3.3854 2.6693-1.7578 1.302-3.4505 2.4739t-3.125 2.0183q0.1302 3.2552 0.9765 5.9895 0.8464 2.7344 2.6693 4.6875 1.8229 1.9532 4.7526 3.0599 2.9297 1.0417 7.2266 1.0417 4.5573 0 9.7005-1.5625 5.1432-1.6276 10.352-4.0365 5.2083-2.4739 10.156-5.4036t9.1146-5.6641q0.3255-0.1953 0.7812-0.4557 0.5209-0.3255 0.7162-0.3255 0.5859 0 1.0417 0.7161 0.5208 0.7162 0.5208 1.9532 0 0.3906-0.2604 1.1067-0.1953 0.7162-0.5209 1.4974-0.3255 0.7162-0.7161 1.3021-0.3255 0.5859-0.5859 0.7813zm-36.589-36.719q0-2.2786-1.237-3.5807-1.2369-1.3672-3.125-1.3672-0.651 0.065-1.6276 0.5208-0.9114 0.3906-1.9531 1.1068-1.0417 0.651-2.0182 1.5625-0.9766 0.9115-1.6276 1.888-3.1901 4.5573-5.2084 10.221-1.9531 5.5989-2.6041 13.411 5.1432-3.9062 8.789-7.2265 3.711-3.3855 6.0547-6.3151 2.3438-2.9297 3.4505-5.4037 1.1068-2.539 1.1068-4.8177z" style=""/>
   <path d="m3384.9 7130.5q0-0.7161-0.3906-1.3021-0.3906-0.5859-0.9766-0.9765-0.5208-0.3907-1.1718-0.586-0.586-0.2604-1.0417-0.2604-2.8646 0-5.8594 2.0833-2.9948 2.0183-5.5989 5.6641-2.6042 3.6458-4.5573 8.6589-1.9532 5.013-2.6693 10.872 0.9115-0.586 2.4088-1.6928 1.4974-1.1067 3.1902-2.4088 1.7578-1.3672 3.4505-2.7344 1.7578-1.3672 3.125-2.539 2.9948-2.5391 4.9479-4.4922 1.9531-2.0183 3.0599-3.6459 1.1719-1.6927 1.6276-3.2552 0.4557-1.6276 0.4557-3.3854zm30.208 27.8q0 2.2786-1.6928 4.9479-1.6927 2.6693-4.8177 5.9896-3.5807 3.776-7.8776 7.0312-4.2968 3.1901-8.8541 5.599-4.5573 2.3437-9.2448 3.7109t-9.0495 1.3672q-10.221 0-15.82-6.5755-5.599-6.5755-5.599-19.271 0-4.0365 0.7162-8.2032 0.7161-4.2317 2.0833-8.3333 1.4323-4.1016 3.5156-7.9427 2.1485-3.8411 4.9479-7.1615 1.7579-2.0182 3.9063-4.1015 2.1484-2.0834 4.7526-3.711 2.6042-1.6927 5.6641-2.7343 3.125-1.0417 6.7708-1.0417 2.6042 0 4.6875 1.0417 2.0833 0.9765 3.5156 2.539t2.1485 3.5157q0.7812 1.9531 0.7812 3.8411 0 3.9714-2.1484 8.0729-2.1485 4.0365-6.0547 8.2031-3.9063 4.1016-9.375 8.2683-5.4688 4.1015-12.174 8.2031-0.9115 0.5208-1.8229 1.1719-0.9115 0.5859-0.9115 1.4974 0 1.9531 0.5209 4.1015 0.5208 2.1485 1.888 3.9714 1.3672 1.7578 3.6458 2.9297 2.3438 1.1718 5.9245 1.1718 4.5573 0 9.2448-1.4322 4.7526-1.4974 9.2448-4.1016 4.5573-2.6042 8.789-6.1849 4.2969-3.5807 8.0079-7.7474 2.0833-2.2786 3.3203-2.2786 0.7161 0 1.0416 0.8463 0.3256 0.8464 0.3256 2.7995z" style=""/>
   <path d="m3522.2 7148.6q0 4.0364-5.5339 9.9609-1.3672 1.4974-3.3854 3.3203-1.9531 1.8229-4.1666 3.711-2.2136 1.8229-4.4922 3.6458-2.2136 1.8229-4.1667 3.3203-6.25 4.8177-13.086 9.1146-6.836 4.2969-13.802 7.5521-6.9662 3.2552-13.932 5.1432-6.9011 1.888-13.346 1.888-7.0312 0-12.24-2.0182-5.2084-2.0182-8.6589-5.7292-3.3854-3.7109-5.0781-8.9192-1.6927-5.2735-1.6927-11.719-0.065-5.8594 1.1718-11.914 1.3021-6.0546 3.5808-11.914 2.2786-5.8594 5.4687-11.263 3.1901-5.4688 6.9662-10.091 2.2786-2.7995 5.1432-5.664 2.8646-2.9297 5.9896-5.6641 3.1901-2.7344 6.4453-5.0781 3.2552-2.4089 6.3802-4.2318 2.0182-1.1719 5.1432-2.7344t6.5755-2.9297q3.4506-1.3672 6.836-2.2786 3.3854-0.9766 5.8594-0.9766 3.9713 0 6.3151 0.586 2.4088 0.5208 4.2317 1.8229 0.8464 0.651 1.9532 2.0182 1.1718 1.3021 2.1484 2.9297 1.0417 1.5625 1.6927 3.1901 0.7161 1.5625 0.7161 2.6693 0 1.1067-1.0416 3.3203-1.0417 2.2135-2.4089 4.6224-1.3672 2.3437-2.7343 4.4271-1.3672 2.0182-2.0834 2.7994-2.6693 2.9297-5.7291 2.9297-2.6042 0-4.1016-1.5625-1.4323-1.6276-1.4323-4.0364 0-0.8464 0.9766-2.6042 0.9765-1.8229 3.2552-4.1016 2.2786-2.2786 3.5156-4.1666 1.3021-1.9532 1.6276-2.6042-1.3021-0.9115-3.1901-1.4323t-3.5156-0.5208q-2.3438 0-5.7943 1.1068-3.4505 1.0416-7.0964 2.7343-3.5807 1.6927-7.0312 3.7761-3.3854 2.0182-5.7292 3.9062-6.7057 5.5339-12.37 11.914-5.664 6.3802-9.375 14.128-1.4974 3.1901-2.8645 6.7057-1.3021 3.4505-2.2787 7.0313-0.9766 3.5807-1.5625 7.1614-0.5208 3.5156-0.5208 6.7709 0 3.8411 0.8463 7.1614 0.9115 3.3203 2.9297 5.7292 2.0182 2.4088 5.2735 3.776 3.3203 1.3672 8.138 1.3672 5.2083 0 10.677-1.4323 5.4687-1.4323 10.872-3.8411 5.4687-2.474 10.807-5.599 5.3386-3.1901 10.221-6.6406 4.9479-3.4505 9.375-6.9011 4.4271-3.4505 8.0729-6.5104 1.4974-1.237 3.125-2.7343 1.6927-1.4974 3.3203-2.9948t3.125-2.9948q1.5625-1.4974 2.7344-2.7344 2.9297 1.4974 2.9297 4.2969z" style=""/>
   <path d="m3554.6 7129q0-0.7161-0.4558-1.3672-0.3906-0.651-1.0416-1.1718-0.586-0.5209-1.3021-0.8464-0.6511-0.3255-1.1068-0.3255-2.539 0-5.664 2.1484-3.0599 2.0833-5.9245 5.8594-2.7995 3.776-5.013 9.0495-2.2136 5.2734-2.9948 11.588 0.9114-0.5859 3.0599-2.2786 2.1484-1.6927 4.6224-3.7761 2.539-2.0833 4.9479-4.2317 2.4739-2.1485 3.9713-3.711 1.8229-1.888 3.125-3.3854 1.3672-1.4974 2.1485-2.7344 0.8463-1.3021 1.2369-2.4739 0.3907-1.1719 0.3907-2.3438zm46.875 2.1485q0 1.4973-1.3021 4.8177-1.3021 3.2552-3.5807 7.4869-2.2787 4.1667-5.3386 8.7891t-6.6406 8.724q-3.6458 4.427-8.2031 8.5937t-9.8308 7.4219q-5.2083 3.2552-11.003 5.2083-5.7942 1.9531-11.914 1.9531-6.25 0-10.677-2.0833-4.362-2.1484-7.1615-5.599-2.7343-3.4505-4.0364-7.8125-1.237-4.3619-1.237-8.9192 0-4.1016 0.7812-8.2683 0.7813-4.2317 2.2136-8.2031 1.4974-4.0364 3.5156-7.6823 2.0182-3.6458 4.4922-6.7708 1.5625-2.0182 3.776-4.2318 2.2787-2.2786 5.0782-4.1666 2.8645-1.8881 6.1849-3.125 3.3203-1.3021 6.9661-1.3021 2.6042 0 4.5573 0.9765 2.0182 0.9115 3.3203 2.474 1.3672 1.4974 2.0182 3.3854 0.7162 1.888 0.7162 3.7761 0 3.8411-1.4323 7.4218-1.4323 3.5808-4.6875 7.4219-3.2552 3.7761-8.5287 8.0078-5.2083 4.1667-12.826 9.2448-0.4557 0.3255-1.3021 0.8464-0.8463 0.5208-1.6927 1.1718-0.8463 0.586-1.4974 1.237-0.5859 0.586-0.5859 1.0417 0 1.7578 0.5859 3.8411 0.586 2.0183 2.0834 3.7761 1.5625 1.6927 4.2317 2.8646 2.6693 1.1718 6.836 1.1718 2.9297 0 6.0547-0.7161 3.1901-0.7813 6.3151-2.0833 3.1901-1.3672 6.25-3.1902 3.0599-1.888 5.7942-4.1666 3.6459-2.9297 7.3568-6.7709 3.7109-3.9062 7.2266-8.3984 3.5156-4.4922 6.7057-9.4401 3.1901-5.013 5.7943-10.156 0.7161-1.4323 1.5625-1.9532 0.9114-0.5208 1.4974-0.5208 0.7812 0 1.1718 1.0417 0.3907 0.9765 0.3907 2.8646z" style=""/>
   <path d="m3653.6 7147.1q0 0.9765-1.3021 3.3854-1.237 2.4088-3.5156 5.7292-2.2136 3.2552-5.3386 7.1614-3.0598 3.9063-6.6406 7.8776-3.5807 3.9063-7.5521 7.6172-3.9713 3.6458-8.0078 6.5104-4.0364 2.7995-8.0078 4.4922-3.9062 1.6927-7.487 1.6927-4.8177 0-7.8125-1.7578t-4.6875-4.6875-2.3437-6.6406q-0.5859-3.7761-0.5859-7.8125 0-2.4089 0.3255-7.0313 0.3906-4.6224 1.1067-10.547 0.7162-5.9245 1.7579-12.695 1.1067-6.8359 2.539-13.542 1.4323-6.7058 3.1901-12.891 1.7578-6.1849 3.8412-10.872 2.1484-4.7526 4.6224-7.5521 2.4739-2.8646 5.2734-2.8646 1.1068 0 1.6276 1.3021t0.5208 4.1666q0 0.065-0.5208 1.7579-0.5208 1.6276-1.3672 4.1666-0.7812 2.474-1.7578 5.4688-0.9115 2.9948-1.7578 5.664-0.8464 2.6693-1.4974 4.6224-0.5859 1.9532-0.7161 2.4089-3.6459 12.305-5.6641 24.284-1.9531 11.914-1.9531 22.266 0 3.125 0.7161 5.2734 0.7162 2.1484 1.888 3.5156 1.237 1.3021 2.8646 1.9531 1.6276 0.586 3.4505 0.586 2.5391 0 5.599-1.3021t6.3151-3.5156q3.3203-2.2787 6.7708-5.2735t6.7709-6.3151q3.3203-3.3203 6.3802-6.7708 3.125-3.4505 5.7942-6.6406 0.6511-0.7813 1.4323-1.5625 0.8464-0.7813 1.6927-1.4323 0.9115-0.7162 1.6927-1.1068 0.7813-0.4557 1.3672-0.4557 0.9766 0 0.9766 1.3672z" style=""/>
   <path d="m3697.8 7164.4q0 0.7812-0.651 2.2786-0.5859 1.4323-1.5625 3.0599-0.9115 1.5625-1.9531 3.125-0.9766 1.5625-1.7578 2.6042-2.6042 3.3854-6.0547 6.5755-3.3854 3.125-7.0964 5.599-3.7109 2.4739-7.5521 3.9713-3.776 1.4974-7.2265 1.4974-5.2735 0-9.1146-2.0833-3.776-2.0834-6.25-6.0547-2.4089-4.0365-3.5807-9.8958-1.1719-5.9245-1.1719-13.477 0-4.6875 0.3906-10.221 0.3906-5.5989 1.1068-11.523 0.7161-5.9896 1.6927-12.044 0.9766-6.0546 2.1484-11.654 1.1719-5.599 2.474-10.417 1.3021-4.8828 2.6693-8.4635 1.4323-3.6458 2.7994-5.7292 1.4323-2.0833 2.7344-2.0833 1.5625 0 2.6693 1.3672 1.1719 1.3021 1.888 2.7995-0.7161 6.25-2.7344 15.299-1.9531 9.0495-4.6875 21.354-0.7812 3.4505-1.3671 7.1615-0.5209 3.6458-0.9115 7.3567-0.3255 3.711-0.5208 7.3568-0.1954 3.5807-0.1954 6.7708 0 11.393 2.9297 17.513 2.9948 6.0547 10.026 6.0547 3.3203 0 6.5755-1.2369 3.2552-1.3021 6.1849-3.2553 2.9948-2.0182 5.6641-4.3619 2.6692-2.4089 4.9479-4.6875 0.7161-0.7162 1.6927-1.8229 1.0416-1.1068 1.9531-2.0834 0.9766-1.0416 1.7578-1.7578 0.7813-0.7812 1.0417-0.7812 1.0416 0 1.0416 1.888z" style=""/>
  </g>
 </g>
</svg>
