<?xml version="1.0" encoding="UTF-8" standalone="no"?>
<!-- Created with Inkscape (http://www.inkscape.org/) -->

<svg
   xmlns:dc="http://purl.org/dc/elements/1.1/"
   xmlns:cc="http://creativecommons.org/ns#"
   xmlns:rdf="http://www.w3.org/1999/02/22-rdf-syntax-ns#"
   xmlns:svg="http://www.w3.org/2000/svg"
   xmlns="http://www.w3.org/2000/svg"
   xmlns:sodipodi="http://sodipodi.sourceforge.net/DTD/sodipodi-0.dtd"
   xmlns:inkscape="http://www.inkscape.org/namespaces/inkscape"
   width="183.49536"
   height="237.46617"
   viewBox="0 0 48.549813 62.829593"
   version="1.1"
   id="svg8"
   inkscape:version="0.92.4 (5da689c313, 2019-01-14)"
   sodipodi:docname="NewGameIcon.svg">
  <defs
     id="defs2">
    <clipPath
       clipPathUnits="userSpaceOnUse"
       id="clipPath10953">
      <rect
         ry="5.0084248"
         y="-306.81076"
         x="-392.60233"
         height="196.76831"
         width="144.7149"
         id="rect10955"
         style="display:inline;fill:#ffffff;fill-opacity:1;fill-rule:nonzero;stroke:#000000;stroke-width:0.5205341;stroke-linejoin:round;stroke-miterlimit:4;stroke-dasharray:none;stroke-opacity:1" />
    </clipPath>
  </defs>
  <sodipodi:namedview
     id="base"
     pagecolor="#ffffff"
     bordercolor="#666666"
     borderopacity="1.0"
     inkscape:pageopacity="0.0"
     inkscape:pageshadow="2"
     inkscape:zoom="0.98994949"
     inkscape:cx="67.178906"
     inkscape:cy="68.735365"
     inkscape:document-units="px"
     inkscape:current-layer="layer3"
     showgrid="false"
     inkscape:object-nodes="false"
     inkscape:snap-intersection-paths="false"
     inkscape:snap-nodes="false"
     units="px"
     inkscape:snap-others="true"
     inkscape:window-width="1920"
     inkscape:window-height="1027"
     inkscape:window-x="-8"
     inkscape:window-y="-8"
     inkscape:window-maximized="1"
     inkscape:snap-object-midpoints="true"
     inkscape:object-paths="true"
     inkscape:pagecheckerboard="true" />
  <metadata
     id="metadata5">
    <rdf:RDF>
      <cc:Work
         rdf:about="">
        <dc:format>image/svg+xml</dc:format>
        <dc:type
           rdf:resource="http://purl.org/dc/dcmitype/StillImage" />
        <dc:title></dc:title>
      </cc:Work>
    </rdf:RDF>
  </metadata>
  <g
     inkscape:label="Layer 1"
     inkscape:groupmode="layer"
     id="layer1"
     transform="translate(-32.192464,-91.110171)">
    <path
       style="fill:none;stroke:#000000;stroke-width:0.26458332px;stroke-linecap:butt;stroke-linejoin:miter;stroke-opacity:1"
       d="m 35.404665,103.49258 -3.099104,5.10701 5.084212,-5.10701 3.272692,-5.281367 z"
       id="path845"
       inkscape:connector-curvature="0" />
    <path
       transform="matrix(1,0,-0.70552313,0.70868689,0,0)"
       style="fill:#d4d4d4;fill-opacity:1;fill-rule:nonzero;stroke:#000000;stroke-width:0.31429341;stroke-linecap:butt;stroke-linejoin:round;stroke-miterlimit:4;stroke-dasharray:none;stroke-dashoffset:0;stroke-opacity:1;paint-order:normal"
       d="m 138.43524,138.58195 h 37.03138 v 7.45234 h -37.03138 z"
       id="rect825"
       inkscape:connector-curvature="0" />
    <path
       style="fill:#f0f0f0;fill-opacity:1;fill-rule:nonzero;stroke:#000000;stroke-width:0.26458332;stroke-linecap:butt;stroke-linejoin:round;stroke-miterlimit:4;stroke-dasharray:none;stroke-dashoffset:0;stroke-opacity:1;paint-order:normal"
       d="M 40.655792,92.923164 H 77.69384 v 5.28805 H 40.655792 Z"
       id="rect847"
       inkscape:connector-curvature="0" />
    <path
       style="fill:#dfdfdf;fill-opacity:1;fill-rule:nonzero;stroke:#000000;stroke-width:0.26458332;stroke-linecap:butt;stroke-linejoin:round;stroke-miterlimit:4;stroke-dasharray:none;stroke-dashoffset:0;stroke-opacity:1;paint-order:normal"
       d="M 39.887347,91.242463 H 75.05601 c 0.518248,0 1.145349,0.207257 1.406055,0.464702 l 1.231474,1.216426 H 40.654667 l -1.232199,-1.216426 c -0.260706,-0.257445 -0.05337,-0.464702 0.464879,-0.464702 z"
       id="rect849"
       inkscape:connector-curvature="0"
       sodipodi:nodetypes="ssccccs" />
    <g
       style="display:inline"
       id="g4266"
       transform="matrix(0.13223197,0,0,0.13202416,-235.76399,14.614274)">
      <g
         transform="translate(2502.1111,-2.1445746e-5)"
         id="g8380">
        <rect
           ry="9.6217031"
           y="605.67255"
           x="-438.26874"
           height="378.01233"
           width="278.01233"
           id="rect8366"
           style="display:inline;fill:#ffffff;fill-opacity:1;fill-rule:nonzero;stroke:#000000;stroke-width:1;stroke-linejoin:round;stroke-miterlimit:4;stroke-dasharray:none;stroke-opacity:1" />
        <g
           style="display:inline;opacity:1;fill:#000000;fill-opacity:1"
           transform="matrix(0.20262672,0,0,0.20262672,-428.16088,639.85062)"
           id="g8372">
          <path
             style="fill:#000000;fill-opacity:1;stroke-width:0.26458332"
             d="M 48.381025,228.23339 C 26.253243,228.23355 8.3150907,210.2954 8.3152545,188.16762 c 0,-51.66652 71.0602605,-60.55738 71.0602605,-88.47138 0,27.92058 71.059225,36.80486 71.059225,88.47138 1.7e-4,22.12778 -17.93799,40.06593 -40.06577,40.06577 -12.015261,-0.01 -23.39187,-5.41135 -30.993971,-14.7159 -7.602101,9.30455 -18.97871,14.70616 -30.993974,14.7159 z"
             id="path8368"
             inkscape:connector-curvature="0"
             sodipodi:nodetypes="ccccccc" />
          <path
             style="fill:#000000;fill-opacity:1;stroke-width:0.49279919"
             inkscape:transform-center-y="-15.465935"
             d="m 79.375,163.66621 c 0,92.91768 27.03417,92.79563 27.03417,92.79563 H 52.340833 c 0,0 27.034167,0.12204 27.034167,-92.79563 z"
             id="path8370"
             inkscape:connector-curvature="0"
             sodipodi:nodetypes="cccc"
             inkscape:transform-center-x="-4e-06" />
        </g>
      </g>
      <flowRoot
         xml:space="preserve"
         id="flowRoot8102"
         style="font-style:normal;font-variant:normal;font-weight:normal;font-stretch:normal;font-size:200px;line-height:1.25;font-family:SimSun-ExtB;-inkscape-font-specification:SimSun-ExtB;letter-spacing:-30px;word-spacing:0px;display:inline;fill:#000000;fill-opacity:1;stroke:none"
         transform="matrix(0.26458333,0,0,0.26458333,2489.8456,738.65422)"><flowRegion
           id="flowRegion8098"
           style="font-style:normal;font-variant:normal;font-weight:normal;font-stretch:normal;font-size:200px;font-family:SimSun-ExtB;-inkscape-font-specification:SimSun-ExtB;letter-spacing:-30px;fill:#000000;fill-opacity:1"><rect
             id="rect8096"
             width="203.53845"
             height="313.45477"
             x="-1603.5383"
             y="-515.34454"
             style="font-style:normal;font-variant:normal;font-weight:normal;font-stretch:normal;font-size:200px;font-family:SimSun-ExtB;-inkscape-font-specification:SimSun-ExtB;letter-spacing:-30px;fill:#000000;fill-opacity:1" /></flowRegion><flowPara
           id="flowPara8100">10</flowPara></flowRoot>      <g
         id="g8812"
         transform="matrix(0.3680415,0,0,0.3680415,2261.8573,599.70207)"
         style="display:inline;opacity:1;fill:#000000;fill-opacity:1">
        <path
           sodipodi:nodetypes="ccccccc"
           inkscape:connector-curvature="0"
           id="path8808"
           d="M 48.381025,228.23339 C 26.253243,228.23355 8.3150907,210.2954 8.3152545,188.16762 c 0,-51.66652 71.0602605,-60.55738 71.0602605,-88.47138 0,27.92058 71.059225,36.80486 71.059225,88.47138 1.7e-4,22.12778 -17.93799,40.06593 -40.06577,40.06577 -12.015261,-0.01 -23.39187,-5.41135 -30.993971,-14.7159 -7.602101,9.30455 -18.97871,14.70616 -30.993974,14.7159 z"
           style="fill:#000000;fill-opacity:1;stroke-width:0.26458332" />
        <path
           inkscape:transform-center-x="-4e-06"
           sodipodi:nodetypes="cccc"
           inkscape:connector-curvature="0"
           id="path8810"
           d="m 79.375,163.66621 c 0,92.91768 27.03417,92.79563 27.03417,92.79563 H 52.340833 c 0,0 27.034167,0.12204 27.034167,-92.79563 z"
           inkscape:transform-center-y="-15.465935"
           style="fill:#000000;fill-opacity:1;stroke-width:0.49279919" />
      </g>
      <g
         style="display:inline;opacity:1;fill:#000000;fill-opacity:1"
         transform="matrix(0.3680415,0,0,0.3680415,2117.4273,599.70205)"
         id="g8824">
        <path
           style="fill:#000000;fill-opacity:1;stroke-width:0.26458332"
           d="M 48.381025,228.23339 C 26.253243,228.23355 8.3150907,210.2954 8.3152545,188.16762 c 0,-51.66652 71.0602605,-60.55738 71.0602605,-88.47138 0,27.92058 71.059225,36.80486 71.059225,88.47138 1.7e-4,22.12778 -17.93799,40.06593 -40.06577,40.06577 -12.015261,-0.01 -23.39187,-5.41135 -30.993971,-14.7159 -7.602101,9.30455 -18.97871,14.70616 -30.993974,14.7159 z"
           id="path8820"
           inkscape:connector-curvature="0"
           sodipodi:nodetypes="ccccccc" />
        <path
           style="fill:#000000;fill-opacity:1;stroke-width:0.49279919"
           inkscape:transform-center-y="-15.465935"
           d="m 79.375,163.66621 c 0,92.91768 27.03417,92.79563 27.03417,92.79563 H 52.340833 c 0,0 27.034167,0.12204 27.034167,-92.79563 z"
           id="path8822"
           inkscape:connector-curvature="0"
           sodipodi:nodetypes="cccc"
           inkscape:transform-center-x="-4e-06" />
      </g>
      <g
         style="display:inline;opacity:1;fill:#000000;fill-opacity:1"
         transform="matrix(0.3680415,0,0,0.3680415,2189.6424,629.48711)"
         id="g8854">
        <path
           style="fill:#000000;fill-opacity:1;stroke-width:0.26458332"
           d="M 48.381025,228.23339 C 26.253243,228.23355 8.3150907,210.2954 8.3152545,188.16762 c 0,-51.66652 71.0602605,-60.55738 71.0602605,-88.47138 0,27.92058 71.059225,36.80486 71.059225,88.47138 1.7e-4,22.12778 -17.93799,40.06593 -40.06577,40.06577 -12.015261,-0.01 -23.39187,-5.41135 -30.993971,-14.7159 -7.602101,9.30455 -18.97871,14.70616 -30.993974,14.7159 z"
           id="path8850"
           inkscape:connector-curvature="0"
           sodipodi:nodetypes="ccccccc" />
        <path
           style="fill:#000000;fill-opacity:1;stroke-width:0.49279919"
           inkscape:transform-center-y="-15.465935"
           d="m 79.375,163.66621 c 0,92.91768 27.03417,92.79563 27.03417,92.79563 H 52.340833 c 0,0 27.034167,0.12204 27.034167,-92.79563 z"
           id="path8852"
           inkscape:connector-curvature="0"
           sodipodi:nodetypes="cccc"
           inkscape:transform-center-x="-4e-06" />
      </g>
    </g>
    <path
       style="fill:#ffffff;fill-opacity:1;fill-rule:nonzero;stroke:#000000;stroke-width:0.99999994;stroke-linecap:butt;stroke-linejoin:round;stroke-miterlimit:4;stroke-dasharray:none;stroke-dashoffset:0;stroke-opacity:1;paint-order:normal"
       d="M 133.79688,391.13281 V 581.08984 H 273.75391 V 391.13281 h -52.30079 a 17.677669,17.677669 0 0 1 -17.67773,17.67774 17.677669,17.677669 0 0 1 -17.67773,-17.67774 z"
       transform="scale(0.26458333)"
       id="rect815"
       inkscape:connector-curvature="0" />
    <g
       clip-path="url(#clipPath10953)"
       transform="matrix(0.25504565,0,0,0.2548083,135.65353,181.78682)"
       id="g10894"
       style="display:inline">
      <path
         style="fill:#ff0000;stroke-width:0.32639533"
         d="m -340.68185,-271.37828 c -27.29728,-2.1e-4 -49.42616,22.12866 -49.42594,49.42594 0,63.73686 87.66137,109.14008 87.66137,109.14008 0,0 87.66009,-45.40322 87.66009,-109.14008 2.1e-4,-27.29728 -22.12867,-49.42615 -49.42595,-49.42594 -14.82227,0.0123 -28.85668,6.67553 -38.23478,18.15383 -9.37811,-11.4783 -23.41252,-18.14182 -38.23479,-18.15383 z"
         id="path10890"
         inkscape:connector-curvature="0"
         sodipodi:nodetypes="ccccccc" />
      <path
         inkscape:connector-curvature="0"
         id="path10892"
         d="m -340.68201,-271.37844 c -27.29727,-2.2e-4 -49.42616,22.12867 -49.42596,49.42595 0,63.73685 87.66138,109.14035 87.66138,109.14035 v -140.4131 c -1.6e-4,2.2e-4 -4.2e-4,3.9e-4 -6.2e-4,6.3e-4 -9.37813,-11.4783 -23.41253,-18.14182 -38.2348,-18.15383 z"
         style="fill:#ffffff;fill-opacity:0.39215686;fill-rule:nonzero;stroke-width:0.32639533" />
    </g>
    <path
       transform="matrix(0.70710782,-0.70710575,0,1,0,0)"
       style="fill:#e7e7e7;fill-opacity:1;fill-rule:nonzero;stroke:#000000;stroke-width:0.31464416;stroke-linecap:butt;stroke-linejoin:round;stroke-miterlimit:4;stroke-dasharray:none;stroke-dashoffset:0;stroke-opacity:1;paint-order:normal"
       d="m 102.43264,175.91785 h 7.46815 v 50.25995 h -7.46815 z"
       id="rect823"
       inkscape:connector-curvature="0" />
    <path
       style="fill:#ffffff;fill-opacity:1;stroke:#000000;stroke-width:0.26458332px;stroke-linecap:butt;stroke-linejoin:miter;stroke-opacity:1"
       d="m 72.430922,103.49259 5.262917,-5.281377 2.887922,5.887007 -4.51961,4.50137 z"
       id="path831"
       inkscape:connector-curvature="0"
       sodipodi:nodetypes="ccccc" />
  </g>
  <g
     inkscape:groupmode="layer"
     id="layer3"
     inkscape:label="Layer 3"
     style="display:inline"
     transform="translate(-32.192464,-91.110171)">
    <flowRoot
       transform="matrix(0.0577081,0,0,0.0577081,-143.09431,-290.56404)"
       style="font-style:normal;font-variant:normal;font-weight:normal;font-stretch:normal;font-size:133.33332825px;line-height:1.25;font-family:'Segoe Script';-inkscape-font-specification:'Segoe Script';letter-spacing:0px;word-spacing:0px;fill:#ffffff;fill-opacity:1;stroke:none;stroke-width:0.9994548;stroke-miterlimit:4;stroke-dasharray:none;stroke-opacity:1"
       id="flowRoot3565"
       xml:space="preserve"><flowRegion
         style="font-style:normal;font-variant:normal;font-weight:normal;font-stretch:normal;font-size:133.33332825px;font-family:'Segoe Script';-inkscape-font-specification:'Segoe Script';fill:#ffffff;fill-opacity:1;stroke:none;stroke-width:0.9994548;stroke-miterlimit:4;stroke-dasharray:none;stroke-opacity:1"
         id="flowRegion3561"><rect
           style="font-style:normal;font-variant:normal;font-weight:normal;font-stretch:normal;font-size:133.33332825px;font-family:'Segoe Script';-inkscape-font-specification:'Segoe Script';fill:#ffffff;fill-opacity:1;stroke:none;stroke-width:0.9994548;stroke-miterlimit:4;stroke-dasharray:none;stroke-opacity:1"
           y="7073.2324"
           x="3137.7864"
           height="300.52051"
           width="813.17273"
           id="rect3559" /></flowRegion><flowPara
         id="flowPara3563">FreeCell</flowPara></flowRoot>  </g>
</svg>
